<svg xmlns="http://www.w3.org/2000/svg" viewBox="0 0 266.73 24.25" class="app-logo omnisci-logo" style="fill: rgb(29, 72, 154);"><path d="M115.87,121.18v-12.6a12.26,12.26,0,0,0-.13-1.84,4.38,4.38,0,0,0-.51-1.53,2.85,2.85,0,0,0-1-1,3,3,0,0,0-1.62-.39,3.27,3.27,0,0,0-1.66.41,3.68,3.68,0,0,0-1.19,1.1,5,5,0,0,0-.71,1.57,7.56,7.56,0,0,0-.23,1.85v12.46h-7.48V108a5.44,5.44,0,0,0-.78-3.11,2.75,2.75,0,0,0-2.46-1.14,3.17,3.17,0,0,0-2.76,1.42,5.89,5.89,0,0,0-1,3.47v12.5H86.85V98.27H94.1v3.15h.1a7.4,7.4,0,0,1,1-1.41,6.41,6.41,0,0,1,1.49-1.21A8.06,8.06,0,0,1,98.64,98a8.36,8.36,0,0,1,2.36-.32,8.1,8.1,0,0,1,4.17,1,6.87,6.87,0,0,1,2.67,2.87,8.68,8.68,0,0,1,2.92-2.83,8.4,8.4,0,0,1,4.34-1.05,8.09,8.09,0,0,1,3.9.85,7.2,7.2,0,0,1,2.53,2.19,9,9,0,0,1,1.39,3,12.9,12.9,0,0,1,.44,3.26v14.24Z" transform="translate(-46.63 -97.6)"></path><path d="M157.63,121.18v-12.6a9.78,9.78,0,0,0-.16-1.82,5.2,5.2,0,0,0-.52-1.53,2.8,2.8,0,0,0-1-1,3.25,3.25,0,0,0-1.67-.39,3.73,3.73,0,0,0-1.75.39,3.62,3.62,0,0,0-1.26,1.07,5,5,0,0,0-.75,1.58,6.66,6.66,0,0,0-.25,1.85v12.51h-7.53V98.27H150v3.15h.1a7.25,7.25,0,0,1,1.07-1.44,6.65,6.65,0,0,1,1.55-1.21,9.67,9.67,0,0,1,1.94-.82,7.72,7.72,0,0,1,2.24-.32,8.45,8.45,0,0,1,3.87.82,7.35,7.35,0,0,1,2.58,2.13,8.23,8.23,0,0,1,1.42,3,13.56,13.56,0,0,1,.43,3.38v14.24Z" transform="translate(-46.63 -97.6)"></path><path d="M184.6,121.18V98.27h7.49v22.91Z" transform="translate(-46.63 -97.6)"></path><path d="M58.76,97.6a12.13,12.13,0,1,0,12.12,12.13A12.13,12.13,0,0,0,58.76,97.6Zm0,18a5.85,5.85,0,1,1,0-11.69,5.85,5.85,0,0,1,0,11.69Z" transform="translate(-46.63 -97.6)"></path><path d="M248.81,105.06a8.31,8.31,0,0,0-2.15-1.46,5.83,5.83,0,0,0-2.6-.6,4.51,4.51,0,0,0-1.94.42,1.51,1.51,0,0,0,.09,2.79,21.77,21.77,0,0,0,3.18.91,16,16,0,0,1,2.57.78,9.1,9.1,0,0,1,2.36,1.33,6.29,6.29,0,0,1,1.68,2,5.86,5.86,0,0,1,.64,2.83,6.8,6.8,0,0,1-3.12,6,9.64,9.64,0,0,1-3.13,1.33,14.69,14.69,0,0,1-3.47.41,17.24,17.24,0,0,1-5.45-.89,11.4,11.4,0,0,1-4.45-2.63l4.2-4.44a8.5,8.5,0,0,0,2.46,1.83,6.83,6.83,0,0,0,3.1.73,4.11,4.11,0,0,0,1.81-.43,1.56,1.56,0,0,0,.89-1.53,1.66,1.66,0,0,0-1.1-1.56,19.61,19.61,0,0,0-3.42-1.05,17.89,17.89,0,0,1-2.37-.73,7.63,7.63,0,0,1-2.13-1.24,6.13,6.13,0,0,1-1.52-1.92,5.83,5.83,0,0,1-.6-2.74,6.63,6.63,0,0,1,.87-3.5,7.23,7.23,0,0,1,2.24-2.36,9.88,9.88,0,0,1,3-1.35,13,13,0,0,1,3.31-.44,15.82,15.82,0,0,1,5,.81,10.79,10.79,0,0,1,4.13,2.4Z" transform="translate(-46.63 -97.6)"></path><path d="M284.5,113.8a5.36,5.36,0,0,1-4,1.77,5.84,5.84,0,0,1,0-11.68,5.35,5.35,0,0,1,4,1.76l4.2-4.86a12.12,12.12,0,1,0,0,17.88l-4.2-4.87Z" transform="translate(-46.63 -97.6)"></path><path d="M313.37,98.28V121.2h-7.49V98.28Z" transform="translate(-46.63 -97.6)"></path><circle cx="166.33" cy="12.06" r="4.41"></circle></svg>